<?xml version="1.0" encoding="utf-8"?>
<!-- Generator: Adobe Illustrator 16.0.0, SVG Export Plug-In . SVG Version: 6.00 Build 0)  -->
<!DOCTYPE svg PUBLIC "-//W3C//DTD SVG 1.1//EN" "http://www.w3.org/Graphics/SVG/1.1/DTD/svg11.dtd">
<svg version="1.1" xmlns="http://www.w3.org/2000/svg" xmlns:xlink="http://www.w3.org/1999/xlink" x="0px" y="0px"
	 width="90.827px" height="91.882px" viewBox="0 0 90.827 91.882" enable-background="new 0 0 90.827 91.882" xml:space="preserve">
<g id="圖層_1">
	<path fill-rule="evenodd" clip-rule="evenodd" fill="#9A8087" d="M46.782,1.173c24.333,0,44.045,20.309,44.045,45.336
		c0,25.062-19.711,45.373-44.045,45.373c-24.302,0-44.013-20.312-44.013-45.373C2.769,21.481,22.479,1.173,46.782,1.173
		L46.782,1.173z M27.214,26.763h39.169c1.848,0,3.556,0.789,4.784,2.055v0.027c1.253,1.265,1.994,2.995,1.994,4.93v25.503
		c0,1.906-0.74,3.668-1.994,4.93v0.027c-1.228,1.266-2.937,2.055-4.784,2.055H27.214c-1.886,0-3.564-0.789-4.791-2.055l-0.027-0.027
		c-1.227-1.262-1.997-3.023-1.997-4.93V33.774c0-1.935,0.77-3.695,1.997-4.957h0.027C23.65,27.552,25.329,26.763,27.214,26.763
		L27.214,26.763z M25.161,33.513l21.621,17.433l21.621-17.433c-0.057-0.473-0.26-0.91-0.564-1.234
		c-0.372-0.383-0.892-0.617-1.455-0.617H27.214c-0.575,0-1.083,0.234-1.457,0.617l0,0C25.443,32.603,25.219,33.04,25.161,33.513
		L25.161,33.513z M68.434,39.673l-12.279,9.891l12.279,8.508V39.673z M52.253,52.734l-5.472,4.374l-5.442-4.374l-12.506,8.656
		h35.922L52.253,52.734z M37.436,49.563l-12.275-9.891v18.398L37.436,49.563z"/>
	<path fill-rule="evenodd" clip-rule="evenodd" fill="#E69998" d="M44.132,1.173c24.327,0,44.043,20.309,44.043,45.339
		c0,25.059-19.716,45.37-44.043,45.37c-24.301,0-44.014-20.312-44.014-45.37C0.118,21.481,19.832,1.173,44.132,1.173L44.132,1.173z
		 M24.563,26.763h39.168c1.854,0,3.563,0.789,4.791,2.055v0.03c1.248,1.262,1.989,2.992,1.989,4.933v25.494
		c0,1.912-0.741,3.671-1.989,4.936v0.024c-1.228,1.266-2.937,2.055-4.791,2.055H24.563c-1.881,0-3.563-0.789-4.786-2.055
		l-0.028-0.024c-1.229-1.265-1.995-3.023-1.995-4.936V33.78c0-1.94,0.766-3.701,1.995-4.963h0.028
		C21,27.552,22.682,26.763,24.563,26.763L24.563,26.763z M22.512,33.513l21.62,17.433L65.75,33.513
		c-0.051-0.473-0.252-0.91-0.563-1.234c-0.374-0.377-0.885-0.617-1.456-0.617H24.563c-0.573,0-1.085,0.24-1.456,0.617l0,0
		C22.793,32.603,22.568,33.04,22.512,33.513L22.512,33.513z M65.782,39.673l-12.276,9.891l12.276,8.511V39.673z M49.604,52.734
		l-5.472,4.371l-5.442-4.371l-12.501,8.653H62.11L49.604,52.734z M34.786,49.563l-12.273-9.891v18.401L34.786,49.563z"/>
</g>
<g id="圓對話框" display="none">
</g>
<g id="方對話框">
</g>
</svg>
