<?xml version="1.0" encoding="utf-8"?>
<!-- Generator: Adobe Illustrator 16.0.0, SVG Export Plug-In . SVG Version: 6.00 Build 0)  -->
<!DOCTYPE svg PUBLIC "-//W3C//DTD SVG 1.1//EN" "http://www.w3.org/Graphics/SVG/1.1/DTD/svg11.dtd">
<svg version="1.1" xmlns="http://www.w3.org/2000/svg" xmlns:xlink="http://www.w3.org/1999/xlink" x="0px" y="0px"
	 width="90.827px" height="91.882px" viewBox="0 0 90.827 91.882" enable-background="new 0 0 90.827 91.882" xml:space="preserve">
<g id="圖層_1">
	<path fill-rule="evenodd" clip-rule="evenodd" fill="#9A8087" d="M46.731,3.818c24.327,0,44.037,19.722,44.037,44.035
		c0,24.334-19.71,44.028-44.037,44.028c-24.289,0-43.994-19.694-43.994-44.028C2.737,23.54,22.442,3.818,46.731,3.818L46.731,3.818z
		 M60.122,72.76c-11.307,4.246-24.719-0.771-31.385-12.31c-6.666-11.546-4.274-25.683,5.04-33.347
		c0.058,0.114,0.109,0.222,0.171,0.312l8.201,14.221c0.056,0.09,0.109,0.174,0.171,0.257c-5.756,2.908-8.885,4.331-3.902,12.969
		c4.985,8.635,7.775,6.609,13.186,3.079c0.031,0.141,0.114,0.284,0.172,0.398l8.205,14.22C60.037,72.615,60.064,72.699,60.122,72.76
		L60.122,72.76z M54.309,54.118l2.454-1.425c1.134-0.653,2.616-0.255,3.274,0.886L68.238,67.8c0.652,1.138,0.25,2.623-0.886,3.276
		l-2.454,1.398c-1.136,0.683-2.615,0.285-3.27-0.854l-8.204-14.223C52.769,56.257,53.172,54.777,54.309,54.118L54.309,54.118z
		 M36.483,23.201l2.422-1.398c1.141-0.686,2.616-0.287,3.274,0.854l8.201,14.221c0.684,1.141,0.287,2.623-0.854,3.279l-2.448,1.422
		c-1.142,0.656-2.623,0.255-3.276-0.877l-8.204-14.223C34.943,25.337,35.34,23.854,36.483,23.201L36.483,23.201z"/>
	<path fill-rule="evenodd" clip-rule="evenodd" fill="#E69998" d="M44.06,1.174c24.321,0,44.026,19.722,44.026,44.031
		c0,24.338-19.705,44.032-44.026,44.032c-24.293,0-44.001-19.694-44.001-44.032C0.059,20.896,19.767,1.174,44.06,1.174L44.06,1.174z
		 M57.444,70.111c-11.306,4.247-24.717-0.767-31.389-12.309c-6.66-11.543-4.265-25.68,5.045-33.344
		c0.059,0.114,0.115,0.225,0.173,0.309l8.199,14.224c0.061,0.087,0.115,0.174,0.173,0.257c-5.75,2.908-8.885,4.334-3.901,12.969
		s7.778,6.609,13.183,3.076c0.03,0.144,0.115,0.287,0.173,0.398l8.204,14.223C57.36,69.968,57.384,70.058,57.444,70.111
		L57.444,70.111z M51.638,51.477l2.448-1.425c1.138-0.656,2.617-0.258,3.275,0.88l8.201,14.224c0.654,1.135,0.256,2.62-0.88,3.273
		l-2.454,1.401c-1.141,0.683-2.621,0.281-3.273-0.856l-8.207-14.22C50.098,53.615,50.496,52.13,51.638,51.477L51.638,51.477z
		 M33.806,20.554l2.422-1.398c1.134-0.683,2.619-0.284,3.274,0.856l8.206,14.224c0.681,1.135,0.284,2.62-0.859,3.273l-2.448,1.429
		c-1.141,0.652-2.623,0.254-3.274-0.884l-8.201-14.221C32.268,22.692,32.665,21.21,33.806,20.554L33.806,20.554z"/>
</g>
<g id="圓對話框" display="none">
</g>
<g id="方對話框">
</g>
</svg>
